<svg xmlns="http://www.w3.org/2000/svg" viewBox="0 0 217.7958 37.1044">
  <g id="black-rgb">
    <g id="type">
      <path id="type_CompoundPathItem_" data-name="type &lt;CompoundPathItem&gt;" d="M58.2235,9.4291l4.4492,13.3223L67.246,9.4291h4.35V27.2748H68.1708V15.3774L64.0966,27.2748H61.1981l-4.1-11.872v11.872H53.75V9.4291Z"/>
      <path id="type_CompoundPathItem_2" data-name="type &lt;CompoundPathItem&gt;" d="M80.9852,27.05a4.9807,4.9807,0,0,1-2.4873.55,6.0133,6.0133,0,0,1-1.6621-.2255,3.8289,3.8289,0,0,1-1.374-.6993,3.4088,3.4088,0,0,1-.9375-1.2129,4.0724,4.0724,0,0,1-.35-1.7617,3.7261,3.7261,0,0,1,.6-2.1992,4.0809,4.0809,0,0,1,1.5742-1.3252,7.9335,7.9335,0,0,1,2.1875-.6748,20.2958,20.2958,0,0,1,2.4619-.25l1.6739-.0742v-.65a1.8537,1.8537,0,0,0-.6622-1.6494,2.7121,2.7121,0,0,0-1.5615-.45q-2.0757,0-2.375,1.5752l-3.1992-.3a4.1019,4.1019,0,0,1,1.8-2.9619,7.2583,7.2583,0,0,1,3.8994-.9121,7.8471,7.8471,0,0,1,2.5489.3623A4.1109,4.1109,0,0,1,84.81,15.228a4.0205,4.0205,0,0,1,.9248,1.6367,7.5551,7.5551,0,0,1,.2871,2.1621v8.248H82.7225V25.6254A6.8818,6.8818,0,0,1,80.9852,27.05Zm.1123-5.5244a8.94,8.94,0,0,0-1.7744.2256,3.1091,3.1091,0,0,0-1.0371.4375,1.2945,1.2945,0,0,0-.4873.6123,2.2718,2.2718,0,0,0-.125.7744A1.26,1.26,0,0,0,78.1229,24.6a1.8963,1.8963,0,0,0,1.25.375,3.6236,3.6236,0,0,0,2.1992-.624,2.7584,2.7584,0,0,0,.7754-.8877,2.72,2.72,0,0,0,.3-1.3369v-.6748Z"/>
      <path id="type_CompoundPathItem_3" data-name="type &lt;CompoundPathItem&gt;" d="M92.3983,14.228v1.8242a4.4006,4.4006,0,0,1,1.5742-1.5371,3.9754,3.9754,0,0,1,1.95-.5117,7.5891,7.5891,0,0,1,.8243.0371q.3251.0381.5751.0879l-.4248,3.1738a6.2068,6.2068,0,0,0-1.4746-.1494,4.3106,4.3106,0,0,0-1.1.1367,2.3012,2.3012,0,0,0-.95.5127,2.5226,2.5226,0,0,0-.6621.8994,2.6007,2.6007,0,0,0-.2129,1.0254v7.5478h-3.499V14.228Z"/>
      <path id="type_CompoundPathItem_4" data-name="type &lt;CompoundPathItem&gt;" d="M102.8973,9.4291v9.3477l5.0245-4.5488h4.0488l-4.749,4.499,5.124,8.5478h-3.7744l-3.8487-6.5986-1.8252,1.6494v4.9492H99.4735V9.4291Z"/>
      <path id="type_CompoundPathItem_5" data-name="type &lt;CompoundPathItem&gt;" d="M117.2977,14.228v1.75a4.7625,4.7625,0,0,1,1.6993-1.625,4.6243,4.6243,0,0,1,4.374.05,3.1038,3.1038,0,0,1,1.2744,1.6748,5.8548,5.8548,0,0,1,1.8994-1.7246,4.6666,4.6666,0,0,1,2.2-.5244,3.9023,3.9023,0,0,1,3.0361,1.1113,5.2887,5.2887,0,0,1,1.0127,3.6123v8.7226h-3.499v-8.248a4.2543,4.2543,0,0,0-.125-1.1367,1.8158,1.8158,0,0,0-.3379-.6875,1.1393,1.1393,0,0,0-.5117-.3506,1.9708,1.9708,0,0,0-.625-.1,2.58,2.58,0,0,0-.9629.1748,2.639,2.639,0,0,0-.8623.6,2.8514,2.8514,0,0,0-.5615.8,2.2038,2.2038,0,0,0-.2129.95v7.998h-3.499v-8.248a4.2543,4.2543,0,0,0-.125-1.1367,1.8158,1.8158,0,0,0-.3379-.6875,1.1345,1.1345,0,0,0-.5117-.3506,1.9713,1.9713,0,0,0-.625-.1,2.5747,2.5747,0,0,0-.962.1748,2.6185,2.6185,0,0,0-.8623.6,2.6881,2.6881,0,0,0-.5625.8379,2.63,2.63,0,0,0-.2129,1.0625v7.8476h-3.499V14.228Z"/>
      <path id="type_CompoundPathItem_6" data-name="type &lt;CompoundPathItem&gt;" d="M137.0477,25.8754a7.152,7.152,0,0,1-1.7246-5.1494,8.4882,8.4882,0,0,1,.4629-2.8867,5.9729,5.9729,0,0,1,1.3242-2.1738,5.7785,5.7785,0,0,1,2.0869-1.3623,8.1284,8.1284,0,0,1,5.4737,0,5.6405,5.6405,0,0,1,3.3994,3.5361,8.7146,8.7146,0,0,1,.45,2.8867,8.5666,8.5666,0,0,1-.4629,2.9121,6.0783,6.0783,0,0,1-1.3242,2.1875,5.7051,5.7051,0,0,1-2.0869,1.374,7.4821,7.4821,0,0,1-2.7246.4756A6.4358,6.4358,0,0,1,137.0477,25.8754ZM144.1591,23.8a5.408,5.408,0,0,0,.7373-3.0742,5.2834,5.2834,0,0,0-.7373-3.0488,2.9089,2.9089,0,0,0-4.4746,0,5.2826,5.2826,0,0,0-.7374,3.0488,5.468,5.468,0,0,0,.7256,3.0869,2.8883,2.8883,0,0,0,4.4864-.0127Z"/>
      <path id="type_CompoundPathItem_7" data-name="type &lt;CompoundPathItem&gt;" d="M156.1727,27.6752a4.7441,4.7441,0,0,1-4.1-1.85,8.5524,8.5524,0,0,1-1.35-5.124,9.4857,9.4857,0,0,1,.3877-2.7871,6.5455,6.5455,0,0,1,1.1123-2.1748,4.9868,4.9868,0,0,1,1.7744-1.4121,5.4608,5.4608,0,0,1,2.375-.499,5.6289,5.6289,0,0,1,1.9366.35,4.3964,4.3964,0,0,1,1.8125,1.35V9.4291h3.499V27.2748h-3.3994V25.55A4.71,4.71,0,0,1,156.1727,27.6752Zm3.7618-9.0732a2.7546,2.7546,0,0,0-.6875-1.2246,2.1461,2.1461,0,0,0-.9874-.5879,4.3165,4.3165,0,0,0-1.0625-.1367,2.6681,2.6681,0,0,0-1.0869.2246,2.4055,2.4055,0,0,0-.9.7,3.5118,3.5118,0,0,0-.6123,1.249,6.7125,6.7125,0,0,0-.2246,1.85,7.6622,7.6622,0,0,0,.2129,1.9619,3.6221,3.6221,0,0,0,.5869,1.2754,2.1846,2.1846,0,0,0,.875.6992,2.7179,2.7179,0,0,0,1.0743.2129,2.94,2.94,0,0,0,2.05-.7246,3.0537,3.0537,0,0,0,.7373-1.2129,5.9246,5.9246,0,0,0,.2373-1.8369v-.45A7.5843,7.5843,0,0,0,159.9345,18.602Z"/>
      <path id="type_CompoundPathItem_8" data-name="type &lt;CompoundPathItem&gt;" d="M176.9091,26.5375a6.4359,6.4359,0,0,1-4.1123,1.1377,6.2771,6.2771,0,0,1-4.8858-1.8,7.31,7.31,0,0,1-1.6377-5.0986,8.4362,8.4362,0,0,1,.4756-2.9375,6.2253,6.2253,0,0,1,1.3369-2.1865,5.62,5.62,0,0,1,2.0615-1.3623,7.306,7.306,0,0,1,2.6495-.4619,5.6788,5.6788,0,0,1,4.5117,1.7246,6.8021,6.8021,0,0,1,1.5117,4.6484V21.601h-9.0479a3.911,3.911,0,0,0,.8,2.4619,2.78,2.78,0,0,0,2.25.8877,2.1748,2.1748,0,0,0,2.4493-1.75h3.3994A5.1223,5.1223,0,0,1,176.9091,26.5375Zm-2.125-9.3349a2.6121,2.6121,0,0,0-2.0616-.75,3.1046,3.1046,0,0,0-1.2255.2246,2.6074,2.6074,0,0,0-.8868.6123,2.79,2.79,0,0,0-.5625.9,3.4364,3.4364,0,0,0-.2246,1.1123h5.6231A3.0656,3.0656,0,0,0,174.7841,17.2026Z"/>
      <path id="type_CompoundPathItem_9" data-name="type &lt;CompoundPathItem&gt;" d="M184.9725,9.4291V27.2748h-3.499V9.4291Z"/>
      <path id="type_CompoundPathItem_10" data-name="type &lt;CompoundPathItem&gt;" d="M191.622,9.4291V27.2748h-3.4991V9.4291Z"/>
      <path id="type_CompoundPathItem_11" data-name="type &lt;CompoundPathItem&gt;" d="M204.9325,26.5375a6.4309,6.4309,0,0,1-4.1113,1.1377,6.2806,6.2806,0,0,1-4.8867-1.8,7.314,7.314,0,0,1-1.6368-5.0986,8.46,8.46,0,0,1,.4746-2.9375,6.2386,6.2386,0,0,1,1.337-2.1865,5.6237,5.6237,0,0,1,2.0625-1.3623,7.302,7.302,0,0,1,2.6494-.4619,5.6816,5.6816,0,0,1,4.5117,1.7246,6.8021,6.8021,0,0,1,1.5117,4.6484V21.601h-9.0478a3.8991,3.8991,0,0,0,.8,2.4619,2.78,2.78,0,0,0,2.249.8877,2.1752,2.1752,0,0,0,2.45-1.75h3.3984A5.1223,5.1223,0,0,1,204.9325,26.5375Zm-2.124-9.3349a2.6144,2.6144,0,0,0-2.0625-.75,3.0969,3.0969,0,0,0-1.2246.2246,2.6219,2.6219,0,0,0-.8877.6123,2.7891,2.7891,0,0,0-.5616.9,3.4132,3.4132,0,0,0-.2255,1.1123h5.624A3.0656,3.0656,0,0,0,202.8085,17.2026Z"/>
      <path id="type_CompoundPathItem_12" data-name="type &lt;CompoundPathItem&gt;" d="M212.872,14.228v1.8242a4.4006,4.4006,0,0,1,1.5742-1.5371,3.9754,3.9754,0,0,1,1.95-.5117,7.5871,7.5871,0,0,1,.8242.0371q.3252.0381.5752.0879l-.4248,3.1738a6.2074,6.2074,0,0,0-1.4746-.1494,4.3106,4.3106,0,0,0-1.1.1367,2.3012,2.3012,0,0,0-.95.5127,2.5226,2.5226,0,0,0-.6621.8994,2.6007,2.6007,0,0,0-.2129,1.0254v7.5478h-3.4991V14.228Z"/>
    </g>
    <g id="logoMark">
      <polygon id="logoMark_PathItem_" data-name="logoMark &lt;PathItem&gt;" points="32.573 0 32.572 0 32.572 0 23.253 9.318 13.935 0 13.935 0 13.934 0 0 13.934 4.618 18.552 13.935 9.235 23.252 18.552 23.253 18.551 23.255 18.552 32.572 9.235 41.889 18.552 46.507 13.934 32.573 0"/>
      <polygon id="logoMark_PathItem_2" data-name="logoMark &lt;PathItem&gt;" points="9.319 23.17 23.253 37.104 23.253 37.104 23.254 37.104 37.188 23.17 32.57 18.552 23.253 27.869 13.936 18.552 9.319 23.17"/>
    </g>
  </g>
</svg>
